<svg xmlns="http://www.w3.org/2000/svg" class="logo" data-v-2e86a3d8=""><path d="M51.087
    61.56c-1.908
    0-3.61-1.14-3.937-2.937l-2.122-16.585s0-1.101-1.067-1.101c-1.066 0-1.066
    1.062-1.066 1.062L41.606 60.58c-.038.552-.499.98-1.054.98h-1.358a1.054
    1.054 0 01-1.055-1.126l1.334-18.844c.166-1.953 1.835-4.088 4.5-4.088 2.99
    0 4.396 2.627 4.473 4.036l1.97 15.969a.652.652 0 00.67.594.652.652 0
    00.672-.594l1.97-15.969c.076-1.409 1.481-4.036 4.473-4.036 2.665 0 4.334
    2.135 4.5 4.088l1.333 18.844a1.054 1.054 0 01-1.054 1.126h-1.36a1.055
    1.055 0 01-1.054-.98L59.279 42s0-1.063-1.067-1.063-1.066 1.1-1.066
    1.1l-2.123 16.586c-.326 1.797-2.03 2.937-3.936 2.937zm23.361-20.575c-1.34
    0-2.726.305-4.12.519a1.1 1.1 0
    01-1.261-1.095v-1.324c0-.505.338-.949.823-1.07 1.013-.254 2.115-.532
    4.93-.512 6.449.046 7.825 4.17 7.96 5.763.134 1.574.02 3.825-2.666
    5.974l-8.867 6.789a1.15 1.15 0 00-.45.92c.003.633.512 1.08 1.14
    1.08h9.696c.653 0 1.183.598 1.183 1.257v1.081c0 .658-.53 1.192-1.183
    1.192h-9.798c-2.465 0-4.463-2.014-4.463-4.5v-.12c0-1.443.668-2.802
    1.806-3.676l8.85-6.865c.338-.262.641-.573.861-.942a2.95 2.95 0
    00.301-.69c.458-1.326-.34-2.987-1.625-3.385 0
    0-1.058-.396-3.117-.396zm-46.622-.073c1.34 0 3.366.346 4.76.558.664.1
    1.26-.415
    1.26-1.085V39.07c0-.5-.337-.94-.822-1.061-.94-.233-2.673-.492-5.16-.512-6.543
    0-10.348 3.364-10.348 9.144v8.057a6.86 6.86 0 006.86 6.86l5.782-.014a4.54
    4.54 0
    004.54-4.519l.004-.847v-6.664c0-.942-.764-1.706-1.706-1.705h-2.798c-.59
    0-1.068.478-1.068 1.068v1.3c0 .59.478 1.07 1.069
    1.07h1.09v4.895l-.001.253A1.722 1.722 0 0129.59
    58.1c-.74.011-4.535.021-4.535.021h-.666c-2.268-.026-3.43-1.872-3.43-4.142v-8.1c0-2.778
    2.084-4.968 6.867-4.968z" fill="#FF5900" data-v-2e86a3d8=""></path></svg>