<svg xmlns="http://www.w3.org/2000/svg" width="68" height="25" viewBox="0 0 68 25" fill="none">
<path fill-rule="evenodd" clip-rule="evenodd" d="M34.8812 24.9999C32.8995 24.9999 31.1298 23.8157 30.7914 21.9486L28.5857 4.71554C28.5857 4.71554 28.5862 3.57189 27.4776 3.57189C26.3696 3.57189 26.3696 4.67556 26.3696 4.67556L25.0309 23.9823C24.991 24.5552 24.5123 24.9999 23.935 24.9999H22.524C21.887 24.9999 21.3837 24.4626 21.4286 23.83L22.8143 4.25052C22.9863 2.22176 24.7204 0.00292969 27.4891 0.00292969C30.5975 0.00292969 32.0577 2.73278 32.1371 4.19685L34.1834 20.7885C34.2091 21.0722 34.4365 21.4058 34.8812 21.4058C35.3254 21.4058 35.5533 21.0722 35.5785 20.7885L37.6253 4.19685C37.7042 2.73278 39.1649 0.00292969 42.2733 0.00292969C45.042 0.00292969 46.7761 2.22176 46.9481 4.25052L48.3338 23.83C48.3787 24.4626 47.8748 24.9999 47.2384 24.9999H45.8269C45.2502 24.9999 44.7714 24.5552 44.7315 23.9823L43.3928 4.67556C43.3928 4.67556 43.3928 3.57189 42.2848 3.57189C41.1762 3.57189 41.1767 4.71554 41.1767 4.71554L38.9711 21.9486C38.6326 23.8157 36.8629 24.9999 34.8812 24.9999" fill="white"/>
<path fill-rule="evenodd" clip-rule="evenodd" d="M59.1543 3.62225C57.7631 3.62225 56.322 3.93938 54.8733 4.16121C54.1842 4.26746 53.5637 3.72741 53.5637 3.02413V1.64825C53.5637 1.12408 53.9148 0.66235 54.4187 0.536373C55.4719 0.272371 56.6167 -0.0168272 59.5415 0.00453399C66.2418 0.0527336 67.6719 4.33648 67.8127 5.99279C67.9513 7.62775 67.8319 9.96653 65.0418 12.1996L55.829 19.2532C55.5327 19.4799 55.3591 19.8343 55.3607 20.2095C55.364 20.8668 55.8931 21.3318 56.5449 21.3318H66.6203C67.2989 21.3318 67.8494 21.9529 67.8494 22.6376V23.7609C67.8494 24.445 67.2989 24.9999 66.6203 24.9999H56.4398C53.8786 24.9999 51.8027 22.9065 51.8027 20.324V20.1985C51.8027 18.7 52.4967 17.2874 53.6787 16.3793L62.8739 9.24682C63.2255 8.97405 63.541 8.65089 63.7694 8.26749C63.8904 8.06264 64.0049 7.82164 64.0821 7.55161C64.5581 6.17354 63.7283 4.44712 62.3935 4.03413C62.3935 4.03413 61.2942 3.62225 59.1543 3.62225" fill="white"/>
<path fill-rule="evenodd" clip-rule="evenodd" d="M10.7129 3.54706C12.1041 3.54706 14.2101 3.90636 15.6589 4.12709C16.3479 4.23171 16.9679 3.69604 16.9679 2.99933V1.63441C16.9679 1.11462 16.6174 0.65672 16.1129 0.531839C15.1374 0.289746 13.336 0.0208135 10.7513 0C3.95347 0 0 3.49502 0 9.50081V17.8333V17.8722C0 21.8087 3.19158 24.9997 7.12807 24.9997L13.1355 24.9855C15.7317 24.9855 17.8404 22.8872 17.853 20.2904L17.8569 19.4102L17.8574 12.4864C17.8574 11.5071 17.0632 10.7135 16.0839 10.714H15.8692H14.2841H13.1777C12.5642 10.714 12.0674 11.2113 12.0674 11.8242V13.1755C12.0674 13.7884 12.5642 14.2857 13.1777 14.2857H14.3109V19.373C14.3109 19.4387 14.3104 19.5291 14.3093 19.6353C14.3 20.6064 13.5167 21.3935 12.5456 21.4072C11.7761 21.4187 7.83299 21.4291 7.83299 21.4291H7.14176C4.78436 21.4023 3.57773 19.4836 3.57773 17.1257V16.7609V8.7099C3.57773 5.82285 5.74233 3.54706 10.7129 3.54706" fill="white"/>
</svg>